<?xml version="1.0" standalone="no"?>
<!DOCTYPE svg PUBLIC "-//W3C//DTD SVG 20010904//EN"
 "http://www.w3.org/TR/2001/REC-SVG-20010904/DTD/svg10.dtd">
<svg version="1.0" xmlns="http://www.w3.org/2000/svg"
 width="660.000000pt" height="660.000000pt" viewBox="0 0 660.000000 660.000000"
 preserveAspectRatio="xMidYMid meet">
<metadata>
Created by potrace 1.11, written by Peter Selinger 2001-2013
</metadata>
<g transform="translate(0.000000,660.000000) scale(0.100000,-0.100000)"
fill="#000000" stroke="none">
<path d="M4440 5243 c-25 -8 -52 -21 -61 -29 -8 -8 -19 -14 -23 -14 -15 0 -90
-63 -149 -124 -135 -140 -284 -421 -337 -633 -10 -39 -14 -43 -53 -54 -148
-39 -455 -190 -612 -301 -22 -16 -51 -36 -65 -46 -126 -85 -336 -277 -429
-392 -20 -25 -44 -54 -54 -65 -42 -45 -172 -252 -212 -338 -35 -74 -81 -195
-100 -264 -3 -8 -15 -7 -46 4 -57 19 -138 40 -224 58 -61 12 -102 19 -235 40
-14 2 -47 6 -75 9 -27 4 -68 9 -90 11 -58 7 -120 13 -205 20 -41 4 -91 8 -110
10 -94 11 -293 19 -455 19 -352 -2 -521 -64 -600 -220 -27 -53 -30 -68 -30
-154 0 -92 2 -98 43 -181 111 -224 408 -415 787 -504 91 -21 159 -32 313 -50
72 -9 260 -9 352 0 260 24 490 96 650 204 l44 30 56 -53 c61 -58 136 -108 216
-145 l51 -23 5 -92 c8 -148 35 -182 165 -218 75 -21 100 -22 643 -23 623 -2
746 5 828 47 63 33 83 70 91 174 12 153 -23 254 -128 364 l-59 63 71 50 c69
48 130 96 207 162 19 17 81 77 137 133 l102 104 57 -27 c199 -94 393 -105 505
-29 130 89 95 303 -80 482 -36 37 -130 117 -149 128 -3 2 36 145 40 149 2 2
41 6 87 9 47 4 116 14 154 22 37 7 73 14 78 14 5 0 9 -34 9 -75 l0 -75 180 0
180 0 0 174 c0 150 2 175 17 187 39 32 103 134 124 196 78 235 -44 493 -336
708 -172 127 -491 244 -735 271 -36 4 -72 8 -80 10 -8 1 -27 3 -42 3 -23 1
-28 7 -42 54 -28 96 -96 182 -171 218 -49 23 -142 24 -205 2z"/>
</g>
</svg>
